<svg width="24" height="25" viewBox="0 0 24 25" fill="none" xmlns="http://www.w3.org/2000/svg">
<path d="M17.0084 21.396H7.00836C3.35836 21.396 1.25836 19.296 1.25836 15.646V8.646C1.25836 4.996 3.35836 2.896 7.00836 2.896H17.0084C20.6584 2.896 22.7584 4.996 22.7584 8.646V15.646C22.7584 19.296 20.6584 21.396 17.0084 21.396ZM7.00836 4.396C4.14836 4.396 2.75836 5.786 2.75836 8.646V15.646C2.75836 18.506 4.14836 19.896 7.00836 19.896H17.0084C19.8684 19.896 21.2584 18.506 21.2584 15.646V8.646C21.2584 5.786 19.8684 4.396 17.0084 4.396H7.00836Z" fill="white"/>
<path d="M12.0081 13.016C11.1681 13.016 10.3181 12.756 9.66814 12.226L6.53814 9.72597C6.21814 9.46597 6.15814 8.99596 6.41814 8.67596C6.67814 8.35596 7.14815 8.29597 7.46815 8.55597L10.5981 11.056C11.3581 11.666 12.6481 11.666 13.4081 11.056L16.5381 8.55597C16.8581 8.29597 17.3381 8.34596 17.5881 8.67596C17.8481 8.99596 17.7981 9.47597 17.4681 9.72597L14.3381 12.226C13.6981 12.756 12.8481 13.016 12.0081 13.016Z" fill="white"/>
</svg>
