<svg width="25" height="25" viewBox="0 0 25 25" fill="none" xmlns="http://www.w3.org/2000/svg">
<path d="M17.9584 22.896C16.8284 22.896 15.6384 22.626 14.4084 22.106C13.2084 21.596 11.9984 20.896 10.8184 20.046C9.64836 19.186 8.51836 18.226 7.44836 17.176C6.38836 16.106 5.42836 14.976 4.57836 13.816C3.71836 12.616 3.02836 11.416 2.53836 10.256C2.01836 9.016 1.75836 7.816 1.75836 6.686C1.75836 5.906 1.89836 5.166 2.16836 4.476C2.44836 3.766 2.89836 3.106 3.50836 2.536C4.27836 1.776 5.15836 1.396 6.09836 1.396C6.48836 1.396 6.88836 1.486 7.22836 1.646C7.61836 1.826 7.94836 2.096 8.18836 2.456L10.5084 5.726C10.7184 6.016 10.8784 6.296 10.9884 6.576C11.1184 6.876 11.1884 7.176 11.1884 7.466C11.1884 7.846 11.0784 8.216 10.8684 8.566C10.7184 8.836 10.4884 9.126 10.1984 9.416L9.51836 10.126C9.52836 10.156 9.53836 10.176 9.54836 10.196C9.66836 10.406 9.90836 10.766 10.3684 11.306C10.8584 11.866 11.3184 12.376 11.7784 12.846C12.3684 13.426 12.8584 13.886 13.3184 14.266C13.8884 14.746 14.2584 14.986 14.4784 15.096L14.4584 15.146L15.1884 14.426C15.4984 14.116 15.7984 13.886 16.0884 13.736C16.6384 13.396 17.3384 13.336 18.0384 13.626C18.2984 13.736 18.5784 13.886 18.8784 14.096L22.1984 16.456C22.5684 16.706 22.8384 17.026 22.9984 17.406C23.1484 17.786 23.2184 18.136 23.2184 18.486C23.2184 18.966 23.1084 19.446 22.8984 19.896C22.6884 20.346 22.4284 20.736 22.0984 21.096C21.5284 21.726 20.9084 22.176 20.1884 22.466C19.4984 22.746 18.7484 22.896 17.9584 22.896ZM6.09836 2.896C5.54836 2.896 5.03836 3.136 4.54836 3.616C4.08836 4.046 3.76836 4.516 3.56836 5.026C3.35836 5.546 3.25836 6.096 3.25836 6.686C3.25836 7.616 3.47836 8.626 3.91836 9.666C4.36836 10.726 4.99836 11.826 5.79836 12.926C6.59836 14.026 7.50836 15.096 8.50836 16.106C9.50836 17.096 10.5884 18.016 11.6984 18.826C12.7784 19.616 13.8884 20.256 14.9884 20.716C16.6984 21.446 18.2984 21.616 19.6184 21.066C20.1284 20.856 20.5784 20.536 20.9884 20.076C21.2184 19.826 21.3984 19.556 21.5484 19.236C21.6684 18.986 21.7284 18.726 21.7284 18.466C21.7284 18.306 21.6984 18.146 21.6184 17.966C21.5884 17.906 21.5284 17.796 21.3384 17.666L18.0184 15.306C17.8184 15.166 17.6384 15.066 17.4684 14.996C17.2484 14.906 17.1584 14.816 16.8184 15.026C16.6184 15.126 16.4384 15.276 16.2384 15.476L15.4784 16.226C15.0884 16.606 14.4884 16.696 14.0284 16.526L13.7584 16.406C13.3484 16.186 12.8684 15.846 12.3384 15.396C11.8584 14.986 11.3384 14.506 10.7084 13.886C10.2184 13.386 9.72836 12.856 9.21836 12.266C8.74836 11.716 8.40836 11.246 8.19836 10.856L8.07836 10.556C8.01836 10.326 7.99836 10.196 7.99836 10.056C7.99836 9.696 8.12836 9.376 8.37836 9.126L9.12836 8.346C9.32836 8.146 9.47836 7.956 9.57836 7.786C9.65836 7.656 9.68836 7.546 9.68836 7.446C9.68836 7.366 9.65836 7.246 9.60836 7.126C9.53836 6.966 9.42836 6.786 9.28836 6.596L6.96836 3.316C6.86836 3.176 6.74836 3.076 6.59836 3.006C6.43836 2.936 6.26836 2.896 6.09836 2.896ZM14.4584 15.156L14.2984 15.836L14.5684 15.136C14.5184 15.126 14.4784 15.136 14.4584 15.156Z" fill="white"/>
</svg>
