<svg width="25" height="25" viewBox="0 0 25 25" fill="none" xmlns="http://www.w3.org/2000/svg">
<path d="M4 23.25H21C21.41 23.25 21.75 22.91 21.75 22.5C21.75 22.09 21.41 21.75 21 21.75H4C3.59 21.75 3.25 22.09 3.25 22.5C3.25 22.91 3.59 23.25 4 23.25Z" fill="#161C24"/>
<path d="M5.50006 18.75C5.69006 18.75 5.88006 18.68 6.03006 18.53L20.0301 4.53C20.3201 4.24 20.3201 3.76 20.0301 3.47C19.7401 3.18 19.2601 3.18 18.9701 3.47L4.97006 17.47C4.68006 17.76 4.68006 18.24 4.97006 18.53C5.12006 18.68 5.31006 18.75 5.50006 18.75Z" fill="#161C24"/>
<path d="M19.5 15.02C19.91 15.02 20.25 14.68 20.25 14.27V4C20.25 3.59 19.91 3.25 19.5 3.25H9.23C8.82 3.25 8.48 3.59 8.48 4C8.48 4.41 8.82 4.75 9.23 4.75H18.75V14.27C18.75 14.68 19.09 15.02 19.5 15.02Z" fill="#161C24"/>
</svg>
