<svg width="36" height="36" viewBox="0 0 36 36" fill="none" xmlns="http://www.w3.org/2000/svg">
<path d="M30.75 34.125H5.25C4.635 34.125 4.125 33.615 4.125 33C4.125 32.385 4.635 31.875 5.25 31.875H30.75C31.365 31.875 31.875 32.385 31.875 33C31.875 33.615 31.365 34.125 30.75 34.125Z" fill="white"/>
<path d="M28.4999 27.375C28.2149 27.375 27.9299 27.27 27.7049 27.045L6.70491 6.04503C6.26991 5.61003 6.26991 4.89003 6.70491 4.45503C7.13991 4.02003 7.85991 4.02003 8.29491 4.45503L29.2949 25.455C29.7299 25.89 29.7299 26.61 29.2949 27.045C29.0699 27.27 28.7849 27.375 28.4999 27.375Z" fill="white"/>
<path d="M7.5 21.78C6.885 21.78 6.375 21.27 6.375 20.655V5.25C6.375 4.635 6.885 4.125 7.5 4.125H22.905C23.52 4.125 24.03 4.635 24.03 5.25C24.03 5.865 23.52 6.375 22.905 6.375H8.625V20.655C8.625 21.27 8.115 21.78 7.5 21.78Z" fill="white"/>
</svg>
